<svg xmlns="http://www.w3.org/2000/svg" width="30.972" height="30.972" viewBox="0 0 30.972 30.972"><defs><style>.a{fill:#fbfbfb;}</style></defs><path class="a" d="M15.486,0A15.486,15.486,0,1,0,30.972,15.486,15.487,15.487,0,0,0,15.486,0Zm-4.5,23.41H7.214V12.064h3.771ZM9.1,10.514H9.076a1.966,1.966,0,1,1,.05-3.921A1.966,1.966,0,1,1,9.1,10.514Zm15.485,12.9H20.814V17.34c0-1.526-.546-2.566-1.911-2.566a2.065,2.065,0,0,0-1.935,1.379,2.583,2.583,0,0,0-.124.92V23.41H13.073s.049-10.282,0-11.347h3.771V13.67a3.744,3.744,0,0,1,3.4-1.873c2.481,0,4.342,1.622,4.342,5.107Zm0,0"/></svg>