<svg xmlns="http://www.w3.org/2000/svg" width="30.972" height="30.972" viewBox="0 0 30.972 30.972"><defs><style>.a{fill:#fbfbfb;}</style></defs><path class="a" d="M15.486,0A15.486,15.486,0,1,0,30.972,15.486,15.487,15.487,0,0,0,15.486,0Zm7.071,12.074q.01.229.01.459A10.044,10.044,0,0,1,12.453,22.647h0a10.061,10.061,0,0,1-5.448-1.6,7.229,7.229,0,0,0,.848.049,7.132,7.132,0,0,0,4.415-1.521,3.558,3.558,0,0,1-3.321-2.469,3.543,3.543,0,0,0,1.605-.061A3.555,3.555,0,0,1,7.7,13.564c0-.016,0-.03,0-.045a3.53,3.53,0,0,0,1.61.444,3.557,3.557,0,0,1-1.1-4.745,10.091,10.091,0,0,0,7.327,3.714A3.556,3.556,0,0,1,21.594,9.69a7.129,7.129,0,0,0,2.257-.863,3.568,3.568,0,0,1-1.563,1.966,7.089,7.089,0,0,0,2.041-.56,7.223,7.223,0,0,1-1.773,1.841Zm0,0"/></svg>